<?xml version="1.0" encoding="UTF-8" standalone="no"?>
<!-- Created with Inkscape (http://www.inkscape.org/) -->

<svg
   width="600"
   height="200"
   viewBox="0 0 158.74999 52.916666"
   version="1.1"
   id="svg1"
   inkscape:version="1.4 (1:1.4+202410161351+e7c3feb100)"
   sodipodi:docname="logo.svg"
   xmlns:inkscape="http://www.inkscape.org/namespaces/inkscape"
   xmlns:sodipodi="http://sodipodi.sourceforge.net/DTD/sodipodi-0.dtd"
   xmlns="http://www.w3.org/2000/svg"
   xmlns:svg="http://www.w3.org/2000/svg">
  <sodipodi:namedview
     id="namedview1"
     pagecolor="#ffffff"
     bordercolor="#666666"
     borderopacity="1.0"
     inkscape:showpageshadow="2"
     inkscape:pageopacity="0.0"
     inkscape:pagecheckerboard="0"
     inkscape:deskcolor="#d1d1d1"
     inkscape:document-units="mm"
     inkscape:zoom="0.7622131"
     inkscape:cx="380.47103"
     inkscape:cy="219.75482"
     inkscape:window-width="1440"
     inkscape:window-height="810"
     inkscape:window-x="263"
     inkscape:window-y="181"
     inkscape:window-maximized="0"
     inkscape:current-layer="layer1" />
  <defs
     id="defs1" />
  <g
     inkscape:label="Camada 1"
     inkscape:groupmode="layer"
     id="layer1">
    <path
       id="path2"
       style="font-weight:bold;font-size:64px;line-height:1.25;font-family:'Maven Pro';-inkscape-font-specification:'Maven Pro, Bold';text-align:center;letter-spacing:0px;word-spacing:0px;text-anchor:middle;fill:#000000;stroke-width:0.605584"
       d="M -32.795757,17.638369 V 73.638373 H 15.203909 V 65.638035 H -16.796263 V 17.638369 Z m 64.000343,0 v 7.999156 h -8.000339 v 40.00051 h 8.000339 v 8.000338 h 39.999326 v -8.000338 h 8.000339 v -40.00051 h -8.000339 v -7.999156 z m 71.999494,0 v 7.999156 h -8.000335 v 8.000339 h -7.999156 v 23.999832 h 7.999156 v 8.000339 h 8.000335 v 8.000338 h 40.00051 V 41.638202 h -24.00101 v 7.999156 h 8.00034 v 16.000677 h -15.9995 v -8.000339 h -8.00034 V 33.637864 h 8.00034 v -8.000339 h 32.00017 v -7.999156 z m 56.00001,0 v 7.999156 h -8.00034 v 40.00051 h 8.00034 v 8.000338 h 39.99932 v -8.000338 h 8.00034 v -40.00051 h -8.00034 V 17.638369 Z M 39.203741,25.637525 h 23.999833 v 40.00051 H 39.203741 Z m 128.000689,0 h 23.99983 v 40.00051 h -23.99983 z"
       transform="matrix(0.43690575,0,0,0.43690575,23.324489,9.3466593)" />
    <path
       id="text1"
       style="font-weight:bold;font-size:64px;line-height:1.25;font-family:'Maven Pro';-inkscape-font-specification:'Maven Pro, Bold';text-align:center;letter-spacing:0px;word-spacing:0px;text-anchor:middle;stroke-width:0.605584;fill:#5fbcd3"
       d="M -32.795757 17.638369 L -32.795757 73.638373 L 15.203909 73.638373 L 15.203909 65.638035 L -16.796263 65.638035 L -16.796263 17.638369 L -32.795757 17.638369 z M 31.204586 17.638369 L 31.204586 25.637525 L 23.204247 25.637525 L 23.204247 65.638035 L 31.204586 65.638035 L 31.204586 73.638373 L 71.203912 73.638373 L 71.203912 65.638035 L 79.204251 65.638035 L 79.204251 25.637525 L 71.203912 25.637525 L 71.203912 17.638369 L 31.204586 17.638369 z M 103.20408 17.638369 L 103.20408 25.637525 L 95.203745 25.637525 L 95.203745 33.637864 L 87.204589 33.637864 L 87.204589 57.637696 L 95.203745 57.637696 L 95.203745 65.638035 L 103.20408 65.638035 L 103.20408 73.638373 L 143.20459 73.638373 L 143.20459 41.638202 L 119.20358 41.638202 L 119.20358 49.637358 L 127.20392 49.637358 L 127.20392 65.638035 L 111.20442 65.638035 L 111.20442 57.637696 L 103.20408 57.637696 L 103.20408 33.637864 L 111.20442 33.637864 L 111.20442 25.637525 L 143.20459 25.637525 L 143.20459 17.638369 L 103.20408 17.638369 z M 159.20409 17.638369 L 159.20409 25.637525 L 151.20375 25.637525 L 151.20375 65.638035 L 159.20409 65.638035 L 159.20409 73.638373 L 199.20341 73.638373 L 199.20341 65.638035 L 207.20375 65.638035 L 207.20375 25.637525 L 199.20341 25.637525 L 199.20341 17.638369 L 159.20409 17.638369 z M 39.203741 25.637525 L 63.203574 25.637525 L 63.203574 65.638035 L 39.203741 65.638035 L 39.203741 25.637525 z M 167.20443 25.637525 L 191.20426 25.637525 L 191.20426 65.638035 L 167.20443 65.638035 L 167.20443 25.637525 z "
       transform="matrix(0.43690575,0,0,0.43690575,21.736988,7.5992207)" />
    <path
       id="text2"
       style="font-weight:bold;font-size:64px;line-height:1.25;font-family:'Maven Pro';-inkscape-font-specification:'Maven Pro, Bold';text-align:center;letter-spacing:0px;word-spacing:0px;text-anchor:middle;fill:#939dac;stroke-width:0.954509"
       d="m 412.23048,105.68074 c -1.45067,0 -2.8157,0.34077 -4.0957,1.02344 0.384,1.62133 0.57617,2.92296 0.57617,3.9043 v 35.64648 c 0,1.664 0.27736,2.85865 0.83203,3.58399 0.59733,0.72533 1.49283,1.08789 2.6875,1.08789 1.19467,0 2.09212,-0.2972 2.68945,-0.89454 0.64,-0.59733 0.9372,-1.45121 0.89453,-2.56054 -0.896,0 -1.51413,-0.19217 -1.85546,-0.57617 -0.29867,-0.384 -0.44727,-1.02393 -0.44727,-1.91993 v -38.33593 c 0,-0.64 -0.42792,-0.95899 -1.28125,-0.95899 z m -83.51953,2.36719 c -2.432,0 -4.37355,0.59635 -5.82422,1.79101 -1.45067,1.19467 -2.17578,2.85886 -2.17578,4.99219 v 8.64063 c 0,2.51733 0.87566,4.33012 2.625,5.43945 l 6.7832,4.41602 c 1.152,0.72533 1.72852,1.91998 1.72852,3.58398 v 7.23242 c 0,0.768 -0.29915,1.38614 -0.89649,1.85547 -0.55466,0.46933 -1.27978,0.70508 -2.17578,0.70508 -0.896,0 -1.6429,-0.23575 -2.24023,-0.70508 -0.59734,-0.46933 -0.89649,-1.08747 -0.89649,-1.85547 v -5.43945 c 0,-1.152 0.0654,-2.23967 0.19336,-3.26367 -0.59733,-0.128 -1.19563,-0.19336 -1.79297,-0.19336 -0.59733,0 -1.19368,0.0852 -1.79101,0.25586 -1.10934,0.29866 -1.66407,0.83356 -1.66407,1.60156 v 7.93555 c 0,1.74933 0.74495,3.17777 2.23829,4.28711 1.49333,1.06666 3.45667,1.59961 5.88867,1.59961 2.47466,0 4.45979,-0.59635 5.95312,-1.79102 1.49334,-1.19467 2.23828,-2.85885 2.23828,-4.99219 v -8.83203 c 0,-2.47467 -0.9589,-4.30924 -2.8789,-5.5039 l -6.78516,-4.35157 c -0.98133,-0.59733 -1.4707,-1.64338 -1.4707,-3.13672 v -7.48828 c 0,-0.81066 0.25558,-1.4288 0.76758,-1.85547 0.55466,-0.46933 1.27978,-0.70312 2.17578,-0.70312 0.896,0 1.62111,0.23379 2.17578,0.70312 0.55467,0.42667 0.83203,1.04481 0.83203,1.85547 v 5.44141 c 0,1.152 -0.0634,2.23967 -0.19141,3.26367 0.59734,0.128 1.19369,0.19141 1.79102,0.19141 0.59733,0 1.19563,-0.0852 1.79297,-0.25586 1.10933,-0.29867 1.66406,-0.83161 1.66406,-1.59961 v -7.93555 c 0,-1.74933 -0.72511,-3.15794 -2.17578,-4.22461 -1.45067,-1.10933 -3.41401,-1.66406 -5.88867,-1.66406 z m 19.32812,10.24023 c -2.21866,0 -4.00966,0.48937 -5.375,1.47071 -1.32266,0.93866 -1.98437,2.26208 -1.98437,3.96875 v 5.24804 c 0,0.72534 0.51115,1.21666 1.53515,1.47266 0.512,0.17067 1.04495,0.25586 1.59961,0.25586 0.59734,0 1.17385,-0.0654 1.72852,-0.19336 l -0.19141,-3.00781 v -2.11133 c 0,-2.00533 0.8321,-3.00781 2.4961,-3.00781 1.70666,0 2.55859,0.8955 2.55859,2.6875 v 6.91211 l -5.82227,3.45703 c -2.944,1.792 -4.41601,4.43688 -4.41601,7.93554 0,2.304 0.53294,4.13858 1.59961,5.50391 1.06666,1.36533 2.49511,2.04688 4.28711,2.04688 1.792,0 3.34921,-0.65976 4.67187,-1.98243 0.384,1.32267 1.47167,1.98243 3.26367,1.98243 1.152,0 2.02767,-0.2972 2.625,-0.89454 0.64,-0.59733 0.93916,-1.45121 0.89649,-2.56054 -0.896,0 -1.51609,-0.19217 -1.85742,-0.57617 -0.29867,-0.384 -0.44727,-1.02393 -0.44727,-1.91993 V 124.6241 c 0,-4.224 -2.3893,-6.33594 -7.16797,-6.33594 z m 14.08008,0 c -1.36533,0 -2.36781,0.29915 -3.00781,0.89649 -0.59734,0.59733 -0.8747,1.44926 -0.83203,2.55859 0.896,0 1.49235,0.19217 1.79101,0.57617 0.34134,0.384 0.51367,1.02393 0.51367,1.91993 v 25.34375 c 0,0.64 0.36256,0.96093 1.0879,0.96093 1.49333,0 2.88015,-0.0852 4.16015,-0.25586 -0.29867,-1.408 -0.44922,-3.15738 -0.44922,-5.24804 v -20.35157 c 0.64,-1.32266 1.5355,-1.98437 2.6875,-1.98437 1.32267,0 1.98438,0.70333 1.98438,2.11133 v 24.76758 c 0,0.64 0.36256,0.96093 1.08789,0.96093 1.49333,0 2.88015,-0.0852 4.16015,-0.25586 -0.29866,-1.408 -0.44726,-3.15738 -0.44726,-5.24804 v -20.35157 c 0.64,-1.32266 1.5355,-1.98437 2.6875,-1.98437 1.32267,0 1.98437,0.70333 1.98437,2.11133 v 21.43945 c 0,1.664 0.27737,2.85865 0.83204,3.58399 0.59733,0.72533 1.49283,1.08789 2.6875,1.08789 1.19466,0 2.09016,-0.2972 2.6875,-0.89454 0.64,-0.59733 0.93915,-1.45121 0.89648,-2.56054 -0.896,0 -1.51414,-0.19217 -1.85547,-0.57617 -0.29867,-0.384 -0.44922,-1.02393 -0.44922,-1.91993 V 124.4327 c 0,-1.96267 -0.46758,-3.47826 -1.40625,-4.54493 -0.93866,-1.06666 -2.30565,-1.59961 -4.09765,-1.59961 -1.74934,0 -3.34817,0.8321 -4.79883,2.4961 -0.93867,-1.664 -2.34728,-2.4961 -4.22461,-2.4961 -1.83467,0 -3.41366,0.66171 -4.73633,1.98438 -0.55467,-1.32267 -1.53536,-1.98438 -2.94336,-1.98438 z m 29.18359,0 c -1.36533,0 -2.36781,0.29915 -3.00781,0.89649 -0.59733,0.59733 -0.8747,1.44926 -0.83203,2.55859 0.896,0 1.4943,0.19217 1.79297,0.57617 0.34133,0.384 0.51172,1.02393 0.51172,1.91993 v 35.13671 c 0,0.64 0.42596,0.95899 1.2793,0.95899 1.49333,0 2.81675,-0.23379 3.96875,-0.70313 l -0.44922,-4.22461 v -5.11914 h 2.36914 c 2.26133,0 4.05233,-0.5983 5.375,-1.79296 1.32266,-1.19467 1.98437,-2.85886 1.98437,-4.99219 v -18.6875 c 0,-2.09067 -0.51115,-3.6895 -1.53515,-4.79883 -1.024,-1.152 -2.36921,-1.72852 -4.03321,-1.72852 -1.664,0 -3.15585,0.66171 -4.47851,1.98438 -0.55467,-1.32267 -1.53732,-1.98438 -2.94532,-1.98438 z m 34.43165,0 c -4.90667,0 -7.35938,2.09015 -7.35938,6.27149 v 20.03125 c 0,4.224 2.3893,6.33594 7.16797,6.33594 2.21867,0 3.98983,-0.46759 5.3125,-1.40625 1.36533,-0.98134 2.04687,-2.32654 2.04687,-4.03321 v -4.60742 c 0,-0.72533 -0.51115,-1.21666 -1.53515,-1.47266 -0.512,-0.17066 -1.06673,-0.25585 -1.66406,-0.25585 -0.55467,0 -1.1094,0.0634 -1.66407,0.1914 l 0.19141,3.00977 v 1.4707 c 0,2.00533 -0.85193,3.00781 -2.55859,3.00781 -1.664,0 -2.4961,-0.8955 -2.4961,-2.6875 v -5.82422 l 6.14258,-4.22461 c 1.19467,-0.81066 2.13374,-2.00531 2.81641,-3.58398 0.68266,-1.57867 1.02343,-3.30626 1.02343,-5.18359 0,-4.69334 -2.47449,-7.03907 -7.42382,-7.03907 z m -0.19141,4.09571 c 0.768,0 1.40792,0.25558 1.91992,0.76758 0.512,0.46933 0.76758,1.13104 0.76758,1.98437 0,3.072 -0.66171,5.09874 -1.98438,6.08008 l -3.07031,2.30469 v -9.15235 c 0,-1.32266 0.78852,-1.98437 2.36719,-1.98437 z m -27.9043,0.25586 c 1.23734,0 1.85547,0.7469 1.85547,2.24023 v 18.87891 c 0,0.72533 -0.23379,1.32363 -0.70312,1.79297 -0.42667,0.42666 -1.00319,0.64062 -1.72852,0.64062 h -2.49609 v -21.24805 c 0.256,-0.55466 0.66213,-1.06777 1.21679,-1.53711 0.59734,-0.512 1.21547,-0.76757 1.85547,-0.76757 z m -47.23242,13.88867 v 7.74414 c -0.768,1.536 -1.83389,2.30273 -3.19922,2.30273 -1.32267,0 -1.98437,-1.08767 -1.98437,-3.26367 0,-2.21867 0.70528,-3.79766 2.11328,-4.73633 z"
       transform="matrix(0.27719308,0,0,0.27719308,29.974312,-8.5499238)" />
  </g>
</svg>
